<?xml version="1.0" standalone="no"?>
<!DOCTYPE svg PUBLIC "-//W3C//DTD SVG 20010904//EN"
 "http://www.w3.org/TR/2001/REC-SVG-20010904/DTD/svg10.dtd">
<svg version="1.0" xmlns="http://www.w3.org/2000/svg"
 width="200.000000pt" height="200.000000pt" viewBox="0 0 200.000000 200.000000"
 preserveAspectRatio="xMidYMid meet">

<g transform="translate(0.000000,200.000000) scale(0.100000,-0.100000)"
fill="#000000" stroke="none">
<path d="M877 1616 c-85 -35 -135 -73 -182 -137 -59 -80 -78 -149 -73 -257 5
-106 35 -178 102 -250 157 -167 415 -171 574 -8 196 199 138 520 -116 642 -47
23 -73 28 -152 31 -83 3 -102 1 -153 -21z m285 -15 c80 -31 159 -105 200 -189
31 -63 33 -73 33 -172 0 -95 -3 -111 -29 -163 -36 -74 -109 -147 -183 -184
-53 -26 -67 -28 -168 -28 -104 0 -113 2 -170 31 -171 90 -252 280 -196 461 67
217 298 326 513 244z"/>
<path d="M894 1592 c-106 -37 -193 -126 -230 -236 -12 -34 -15 -71 -12 -134 3
-75 9 -96 38 -150 123 -231 424 -268 600 -75 66 73 94 145 93 248 -1 161 -89
288 -239 345 -69 25 -179 26 -250 2z m416 -308 c0 -24 -25 -42 -67 -49 -41 -5
-133 -47 -133 -60 0 -2 15 1 32 6 42 12 98 12 98 0 0 -14 -66 -68 -108 -90
-21 -11 -56 -22 -77 -26 -22 -4 -47 -9 -56 -11 -13 -4 -16 4 -15 38 1 29 5 42
14 41 6 -2 12 4 12 12 0 17 17 20 22 4 2 -6 16 5 31 25 25 32 87 76 87 60 0
-3 16 4 35 16 49 30 125 51 125 34z m-140 -13 c0 -10 -30 -24 -37 -17 -3 3 -2
9 2 15 8 13 35 15 35 2z m-336 -71 c14 0 26 -4 26 -10 0 -11 -39 -13 -65 -4
-14 6 -45 53 -45 70 0 3 13 -8 29 -25 18 -19 39 -31 55 -31z"/>
<path d="M570 755 c0 -8 5 -15 10 -15 6 0 10 -37 10 -90 0 -53 -4 -90 -10 -90
-5 0 -10 -7 -10 -15 0 -11 12 -15 45 -15 33 0 45 4 45 15 0 8 -7 15 -15 15
-12 0 -15 14 -15 68 1 77 1 77 68 -35 28 -47 43 -63 60 -63 21 0 22 3 22 105
0 63 4 105 10 105 6 0 10 7 10 16 0 12 -9 14 -42 12 -38 -3 -69 -28 -34 -28
13 0 16 -12 16 -67 -1 -78 -1 -78 -68 34 -33 56 -40 63 -69 63 -23 0 -33 -5
-33 -15z"/>
<path d="M851 686 c-18 -19 -24 -37 -24 -71 0 -69 45 -104 112 -86 39 11 34
37 -7 33 -30 -3 -62 11 -62 27 0 4 20 12 45 19 35 9 46 17 51 38 10 39 -7 59
-52 62 -32 2 -44 -2 -63 -22z m79 -19 c0 -19 -21 -37 -42 -37 -19 0 -22 8 -12
34 7 19 54 22 54 3z"/>
<path d="M990 695 c0 -8 4 -15 8 -15 5 0 16 -34 26 -75 17 -71 19 -75 45 -75
25 0 30 5 43 53 l14 52 15 -50 c12 -42 19 -50 41 -53 25 -3 27 0 44 72 10 42
21 76 26 76 4 0 8 7 8 15 0 10 -11 15 -35 15 -24 0 -35 -5 -35 -14 0 -8 5 -16
11 -18 7 -2 7 -18 -2 -53 -14 -54 -18 -50 -39 33 -16 65 -42 57 -65 -19 -19
-63 -27 -62 -39 4 -4 23 -3 37 4 37 5 0 10 7 10 15 0 11 -11 15 -40 15 -29 0
-40 -4 -40 -15z"/>
<path d="M1302 698 c-16 -16 -15 -63 2 -77 8 -7 27 -16 43 -20 32 -9 36 -29
10 -45 -16 -9 -22 -7 -34 12 -21 30 -33 28 -33 -7 0 -24 5 -30 30 -34 95 -20
138 72 50 107 -41 16 -53 42 -24 53 10 4 22 -1 29 -10 19 -26 47 -22 43 6 -3
19 -10 22 -53 25 -30 2 -55 -2 -63 -10z"/>
</g>
</svg>
